# xmcd CD database file
#
# Track frame offsets:
#	151
#	15203
#	29822
#	44637
#	58443
#	69648
#	84650
#	99721
#	114280
#	126443
#	145123
#	159642
#	171541
#	186552
#	198391
#	209724
#	222954
#	236912
#	248914
#	263538
#
# Disc length: 3671 seconds
#
# Revision: 0
# Processed by: cddbd v1.5.2PL0 Copyright (c) Steve Scherf et al.
# Submitted via: CDex 1.70beta2
#
DISCID=400e5514
DTITLE=Ella Fitzgerald - Original songs
DYEAR=2005
DGENRE=Jazz
TTITLE0=Sentimal Journey
TTITLE1=Guilty
TTITLE2=Oh, Lady Be Good
TTITLE3=Thatt's my Desire
TTITLE4=That Old Feeling
TTITLE5=How High The Moon
TTITLE6=I didn't Mean A World I Said
TTITLE7=(I love you) For Sentimental Reason
TTITLE8=It's A Pity To Say Goodnight
TTITLE9=I'll See You In My Dreams
TTITLE10=Into Each Life Some Rain Must Fall
TTITLE11=(It's Only A) Paper Moon
TTITLE12=That's The Way It Is
TTITLE13=Petootie Pie
TTITLE14=Flying Home
TTITLE15=Cow Cow Boogie
TTITLE16=Chew-Chew-Chew (Your bubble Gum)
TTITLE17=If Dream Come True
TTITLE18=Dedicated To You
TTITLE19=A Tisket  A Tasket
EXTD=YEAR: 2005
EXTT0=
EXTT1=
EXTT2=
EXTT3=
EXTT4=
EXTT5=
EXTT6=
EXTT7=
EXTT8=
EXTT9=
EXTT10=
EXTT11=
EXTT12=
EXTT13=
EXTT14=
EXTT15=
EXTT16=
EXTT17=
EXTT18=
EXTT19=
PLAYORDER=
